<?xml version="1.0" encoding="UTF-8" standalone="no"?><svg xmlns="http://www.w3.org/2000/svg" xmlns:xlink="http://www.w3.org/1999/xlink" clip-rule="evenodd" stroke-miterlimit="10" viewBox="0 0 62 66"><desc>SVG generated by Keynote</desc><defs></defs><g transform="matrix(1.00, 0.00, -0.00, -1.00, 0.0, 66.0)"><image xlink:href="../../7E5BBD88-4789-4A84-8797-CFEE815F2613/assets/8B539FE73247FB5A10D32695081D33C6.png" width="59.00" height="59.00" transform="matrix(1.00, 0.00, -0.00, -1.00, 1.5, 61.0)" opacity="0.35"></image><path d="M 48.4 50.8 C 58.0 41.2 58.0 25.6 48.4 16.0 C 38.8 6.4 23.3 6.4 13.7 16.0 C 4.1 25.6 4.1 41.2 13.7 50.8 C 23.3 60.4 38.8 60.4 48.4 50.8 Z M 48.4 50.8 " fill="#C0504D"></path><path d="M 41.9 7.2 C 51.5 16.8 51.5 32.3 41.9 41.9 C 32.3 51.5 16.8 51.5 7.2 41.9 C -2.4 32.3 -2.4 16.8 7.2 7.2 C 16.8 -2.4 32.3 -2.4 41.9 7.2 Z M 41.9 7.2 " fill="none" stroke="#8C3A38" stroke-width="2.00" stroke-linejoin="bevel" transform="matrix(1.00, 0.00, 0.00, -1.00, 6.5, 58.0)"></path><g><clipPath id="clip0x6000032bcc20"><path d="M 6.5 8.8 L 55.6 8.8 L 55.6 58.0 L 6.5 58.0 Z M 6.5 8.8 "></path></clipPath><g clip-path="url(#clip0x6000032bcc20)"><text xml:space="preserve" font-family="Impact,Impact" font-weight="bold" font-size="24.0" fill="#FFFFFF" transform="matrix(1.00, 0.00, -0.00, -1.00, 25.1, 23.8)">2</text></g></g></g></svg>