<?xml version="1.0" encoding="UTF-8" standalone="no"?><svg xmlns="http://www.w3.org/2000/svg" xmlns:xlink="http://www.w3.org/1999/xlink" clip-rule="evenodd" stroke-miterlimit="10" viewBox="0 0 62 66"><desc>SVG generated by Keynote</desc><defs></defs><g transform="matrix(1.00, 0.00, -0.00, -1.00, 0.0, 66.0)"><image xlink:href="../../7E5BBD88-4789-4A84-8797-CFEE815F2613/assets/8B539FE73247FB5A10D32695081D33C6.png" width="59.00" height="59.00" transform="matrix(1.00, 0.00, -0.00, -1.00, 1.4, 60.7)" opacity="0.35"></image><path d="M 48.4 50.5 C 57.9 40.9 57.9 25.4 48.4 15.8 C 38.8 6.2 23.2 6.2 13.6 15.8 C 4.0 25.4 4.0 40.9 13.6 50.5 C 23.2 60.1 38.8 60.1 48.4 50.5 Z M 48.4 50.5 " fill="#C0504D"></path><path d="M 41.9 7.2 C 51.5 16.8 51.5 32.3 41.9 41.9 C 32.3 51.5 16.8 51.5 7.2 41.9 C -2.4 32.3 -2.4 16.8 7.2 7.2 C 16.8 -2.4 32.3 -2.4 41.9 7.2 Z M 41.9 7.2 " fill="none" stroke="#8C3A38" stroke-width="2.00" stroke-linejoin="bevel" transform="matrix(1.00, 0.00, 0.00, -1.00, 6.4, 57.7)"></path><g><clipPath id="clip0x6080036a5040"><path d="M 6.4 8.6 L 55.6 8.6 L 55.6 57.7 L 6.4 57.7 Z M 6.4 8.6 "></path></clipPath><g clip-path="url(#clip0x6080036a5040)"><text xml:space="preserve" font-family="Impact,Impact" font-weight="bold" font-size="24.0" fill="#FFFFFF" transform="matrix(1.00, 0.00, -0.00, -1.00, 24.6, 23.5)">3</text></g></g></g></svg>