<?xml version="1.0" encoding="UTF-8" standalone="no"?><svg xmlns="http://www.w3.org/2000/svg" xmlns:xlink="http://www.w3.org/1999/xlink" clip-rule="evenodd" stroke-miterlimit="10" viewBox="0 0 514 136"><desc>SVG generated by Keynote</desc><defs></defs><g transform="matrix(1.00, 0.00, -0.00, -1.00, 0.0, 136.0)"><g><clipPath id="clip0x600003aa3780"><path d="M -1.3 89.0 L 320.5 89.0 L 320.5 137.2 L -1.3 137.2 Z M -1.3 89.0 "></path></clipPath><g clip-path="url(#clip0x600003aa3780)"><text xml:space="preserve" font-family="ArialMT,Arial" font-size="28.0" fill="#000000" transform="matrix(1.00, 0.00, -0.00, -1.00, 6.8, 103.5)">•</text><text xml:space="preserve" font-family="TrebuchetMS,Trebuchet MS" font-size="28.0" fill="#000000" transform="matrix(1.00, 0.00, -0.00, -1.00, 41.8, 103.3)">P</text><text xml:space="preserve" font-family="TrebuchetMS,Trebuchet MS" font-size="28.0" fill="#000000" transform="matrix(1.00, 0.00, -0.00, -1.00, 56.1, 103.3)">r</text><text xml:space="preserve" font-family="TrebuchetMS,Trebuchet MS" font-size="28.0" fill="#000000" transform="matrix(1.00, 0.00, -0.00, -1.00, 66.9, 103.3)">o</text><text xml:space="preserve" font-family="TrebuchetMS,Trebuchet MS" font-size="28.0" fill="#000000" transform="matrix(1.00, 0.00, -0.00, -1.00, 82.0, 103.3)">j</text><text xml:space="preserve" font-family="TrebuchetMS,Trebuchet MS" font-size="28.0" fill="#000000" transform="matrix(1.00, 0.00, -0.00, -1.00, 92.2, 103.3)">e</text><text xml:space="preserve" font-family="TrebuchetMS,Trebuchet MS" font-size="28.0" fill="#000000" transform="matrix(1.00, 0.00, -0.00, -1.00, 107.5, 103.3)">c</text><text xml:space="preserve" font-family="TrebuchetMS,Trebuchet MS" font-size="28.0" fill="#000000" transform="matrix(1.00, 0.00, -0.00, -1.00, 121.4, 103.3)">t</text><text xml:space="preserve" font-family="TrebuchetMS,Trebuchet MS" font-size="28.0" fill="#000000" transform="matrix(1.00, 0.00, -0.00, -1.00, 132.5, 103.3)"> </text><text xml:space="preserve" font-family="TrebuchetMS,Trebuchet MS" font-size="28.0" fill="#000000" transform="matrix(1.00, 0.00, -0.00, -1.00, 140.9, 103.3)">b</text><text xml:space="preserve" font-family="TrebuchetMS,Trebuchet MS" font-size="28.0" fill="#000000" transform="matrix(1.00, 0.00, -0.00, -1.00, 156.5, 103.3)">a</text><text xml:space="preserve" font-family="TrebuchetMS,Trebuchet MS" font-size="28.0" fill="#000000" transform="matrix(1.00, 0.00, -0.00, -1.00, 171.3, 103.3)">s</text><text xml:space="preserve" font-family="TrebuchetMS,Trebuchet MS" font-size="28.0" fill="#000000" transform="matrix(1.00, 0.00, -0.00, -1.00, 182.6, 103.3)">e</text><text xml:space="preserve" font-family="TrebuchetMS,Trebuchet MS" font-size="28.0" fill="#000000" transform="matrix(1.00, 0.00, -0.00, -1.00, 197.9, 103.3)">d</text><text xml:space="preserve" font-family="TrebuchetMS,Trebuchet MS" font-size="28.0" fill="#000000" transform="matrix(1.00, 0.00, -0.00, -1.00, 213.5, 103.3)"> </text><text xml:space="preserve" font-family="TrebuchetMS,Trebuchet MS" font-size="28.0" fill="#000000" transform="matrix(1.00, 0.00, -0.00, -1.00, 221.9, 103.3)">c</text><text xml:space="preserve" font-family="TrebuchetMS,Trebuchet MS" font-size="28.0" fill="#000000" transform="matrix(1.00, 0.00, -0.00, -1.00, 235.8, 103.3)">o</text><text xml:space="preserve" font-family="TrebuchetMS,Trebuchet MS" font-size="28.0" fill="#000000" transform="matrix(1.00, 0.00, -0.00, -1.00, 250.8, 103.3)">n</text><text xml:space="preserve" font-family="TrebuchetMS,Trebuchet MS" font-size="28.0" fill="#000000" transform="matrix(1.00, 0.00, -0.00, -1.00, 266.1, 103.3)">f</text><text xml:space="preserve" font-family="TrebuchetMS,Trebuchet MS" font-size="28.0" fill="#000000" transform="matrix(1.00, 0.00, -0.00, -1.00, 276.5, 103.3)">i</text><text xml:space="preserve" font-family="TrebuchetMS,Trebuchet MS" font-size="28.0" fill="#000000" transform="matrix(1.00, 0.00, -0.00, -1.00, 284.5, 103.3)">g</text></g></g><g><clipPath id="clip0x608003ab8420"><path d="M 325.8 0.7 L 513.8 0.7 L 513.8 133.1 L 325.8 133.1 Z M 325.8 0.7 "></path></clipPath><g clip-path="url(#clip0x608003ab8420)"><image xlink:href="A140A8D2ECB53B572B692A6481565C45.png" width="142.00" height="100.00" transform="matrix(1.32, 0.00, -0.00, -1.32, 325.8, 133.1)"></image></g></g></g></svg>