<?xml version="1.0" encoding="UTF-8" standalone="no"?><svg xmlns="http://www.w3.org/2000/svg" xmlns:xlink="http://www.w3.org/1999/xlink" clip-rule="evenodd" stroke-miterlimit="10" viewBox="0 0 1024 768"><desc>SVG generated by Keynote</desc><defs><linearGradient id="gradSh1.0" x1="0.0" y1="0.0" x2="100.0" y2="0.0" gradientUnits="userSpaceOnUse" gradientTransform="matrix(0.00, -3.74, -10.26, 0.00, 512.0, 617.0)"><stop offset="0.00000" stop-color="#34B3D5"></stop><stop offset="0.17229" stop-color="#35B3D5"></stop><stop offset="0.92229" stop-color="#36B0D0"></stop><stop offset="1.00000" stop-color="#2A869F"></stop></linearGradient></defs><g transform="matrix(1.00, 0.00, -0.00, -1.00, 0.0, 768.0)"><path d="M 0.0 768.0 L 1024.0 768.0 L 1024.0 0.0 L 0.0 0.0 Z M 0.0 768.0 " fill="#FFFFFF"></path><image xlink:href="99BE7E6154C26E424D82572839547CA7.jpeg" width="791.00" height="598.00" transform="matrix(1.29, 0.00, -0.00, -1.29, 4.9, 768.0)"></image><g opacity="0.76"><g><clipPath id="clip0x6080012ae7c0"><path d="M 0.0 236.0 L 1024.0 236.0 L 1024.0 623.0 L 0.0 623.0 Z M 0.0 236.0 "></path></clipPath><g clip-path="url(#clip0x6080012ae7c0)"><image xlink:href="112706C159F0BBF538D2A69C99ABC478.png" width="1032.00" height="380.00" transform="matrix(1.00, 0.00, -0.00, -1.00, -3.7, 618.0)" opacity="0.35"></image></g></g><g><clipPath id="clip0x6080016ae8e0"><path d="M 0.0 616.0 L 1024.0 616.0 L 1024.0 244.0 L 0.0 244.0 Z M 0.3 616.0 "></path></clipPath><g clip-path="url(#clip0x6080016ae8e0)"><g><clipPath id="clip0x6080016aec40"><path d="M 0.0 236.0 L 1024.0 236.0 L 1024.0 623.0 L 0.0 623.0 Z M 0.0 236.0 "></path></clipPath><g clip-path="url(#clip0x6080016aec40)"><path d="M 0.0 236.0 L 1024.0 236.0 L 1024.0 623.0 L 0.0 623.0 Z M 0.0 236.0 " fill="url(#gradSh1.0)"></path></g></g></g></g></g><text xml:space="preserve" font-family="Helvetica,Helvetica" font-size="70.0" fill="#FFFFFF" transform="matrix(1.00, 0.00, -0.00, -1.00, 442.4, 385.0)">B</text><text xml:space="preserve" font-family="Helvetica,Helvetica" font-size="56.0" fill="#FFFFFF" transform="matrix(1.00, 0.00, -0.00, -1.00, 489.1, 385.0)">L</text><text xml:space="preserve" font-family="Helvetica,Helvetica" font-size="56.0" fill="#FFFFFF" transform="matrix(1.00, 0.00, -0.00, -1.00, 520.2, 385.0)">A</text><text xml:space="preserve" font-family="Helvetica,Helvetica" font-size="56.0" fill="#FFFFFF" transform="matrix(1.00, 0.00, -0.00, -1.00, 557.6, 385.0)">C</text><text xml:space="preserve" font-family="Helvetica,Helvetica" font-size="56.0" fill="#FFFFFF" transform="matrix(1.00, 0.00, -0.00, -1.00, 598.0, 385.0)">K</text><text xml:space="preserve" font-family="Helvetica,Helvetica" font-size="56.0" fill="#FFFFFF" transform="matrix(1.00, 0.00, -0.00, -1.00, 635.4, 385.0)">H</text><text xml:space="preserve" font-family="Helvetica,Helvetica" font-size="56.0" fill="#FFFFFF" transform="matrix(1.00, 0.00, -0.00, -1.00, 675.8, 385.0)">O</text><text xml:space="preserve" font-family="Helvetica,Helvetica" font-size="56.0" fill="#FFFFFF" transform="matrix(1.00, 0.00, -0.00, -1.00, 719.4, 385.0)">L</text><text xml:space="preserve" font-family="Helvetica,Helvetica" font-size="56.0" fill="#FFFFFF" transform="matrix(1.00, 0.00, -0.00, -1.00, 750.5, 385.0)">E</text><image xlink:href="F3FED5922D2F3A0C0A4573540653E45F.png" width="443.00" height="417.00" transform="matrix(0.61, 0.00, -0.00, -0.61, 101.1, 544.5)"></image><text xml:space="preserve" font-family="TrebuchetMS,Trebuchet MS" font-size="38.0" fill="#000000" transform="matrix(1.00, 0.00, -0.00, -1.00, 78.3, 148.9)">A</text><text xml:space="preserve" font-family="TrebuchetMS,Trebuchet MS" font-size="38.0" fill="#000000" transform="matrix(1.00, 0.00, -0.00, -1.00, 100.7, 148.9)">n</text><text xml:space="preserve" font-family="TrebuchetMS,Trebuchet MS" font-size="38.0" fill="#000000" transform="matrix(1.00, 0.00, -0.00, -1.00, 121.5, 148.9)"> </text><text xml:space="preserve" font-family="TrebuchetMS,Trebuchet MS" font-size="38.0" fill="#000000" transform="matrix(1.00, 0.00, -0.00, -1.00, 132.9, 148.9)">e</text><text xml:space="preserve" font-family="TrebuchetMS,Trebuchet MS" font-size="38.0" fill="#000000" transform="matrix(1.00, 0.00, -0.00, -1.00, 153.7, 148.9)">l</text><text xml:space="preserve" font-family="TrebuchetMS,Trebuchet MS" font-size="38.0" fill="#000000" transform="matrix(1.00, 0.00, -0.00, -1.00, 164.9, 148.9)">i</text><text xml:space="preserve" font-family="TrebuchetMS,Trebuchet MS" font-size="38.0" fill="#000000" transform="matrix(1.00, 0.00, -0.00, -1.00, 175.7, 148.9)">t</text><text xml:space="preserve" font-family="TrebuchetMS,Trebuchet MS" font-size="38.0" fill="#000000" transform="matrix(1.00, 0.00, -0.00, -1.00, 190.8, 148.9)">e</text><text xml:space="preserve" font-family="TrebuchetMS,Trebuchet MS" font-size="38.0" fill="#000000" transform="matrix(1.00, 0.00, -0.00, -1.00, 211.5, 148.9)"> </text><text xml:space="preserve" font-family="TrebuchetMS,Trebuchet MS" font-size="38.0" fill="#000000" transform="matrix(1.00, 0.00, -0.00, -1.00, 223.0, 148.9)">w</text><text xml:space="preserve" font-family="TrebuchetMS,Trebuchet MS" font-size="38.0" fill="#000000" transform="matrix(1.00, 0.00, -0.00, -1.00, 251.3, 148.9)">e</text><text xml:space="preserve" font-family="TrebuchetMS,Trebuchet MS" font-size="38.0" fill="#000000" transform="matrix(1.00, 0.00, -0.00, -1.00, 272.0, 148.9)">b</text><text xml:space="preserve" font-family="TrebuchetMS,Trebuchet MS" font-size="38.0" fill="#000000" transform="matrix(1.00, 0.00, -0.00, -1.00, 293.2, 148.9)"> </text><text xml:space="preserve" font-family="TrebuchetMS,Trebuchet MS" font-size="38.0" fill="#000000" transform="matrix(1.00, 0.00, -0.00, -1.00, 304.7, 148.9)">p</text><text xml:space="preserve" font-family="TrebuchetMS,Trebuchet MS" font-size="38.0" fill="#000000" transform="matrix(1.00, 0.00, -0.00, -1.00, 325.8, 148.9)">r</text><text xml:space="preserve" font-family="TrebuchetMS,Trebuchet MS" font-size="38.0" fill="#000000" transform="matrix(1.00, 0.00, -0.00, -1.00, 340.6, 148.9)">o</text><text xml:space="preserve" font-family="TrebuchetMS,Trebuchet MS" font-size="38.0" fill="#000000" transform="matrix(1.00, 0.00, -0.00, -1.00, 361.0, 148.9)">x</text><text xml:space="preserve" font-family="TrebuchetMS,Trebuchet MS" font-size="38.0" fill="#000000" transform="matrix(1.00, 0.00, -0.00, -1.00, 380.0, 148.9)">y</text><text xml:space="preserve" font-family="TrebuchetMS,Trebuchet MS" font-size="38.0" fill="#000000" transform="matrix(1.00, 0.00, -0.00, -1.00, 398.8, 148.9)"> </text><text xml:space="preserve" font-family="TrebuchetMS,Trebuchet MS" font-size="38.0" fill="#000000" transform="matrix(1.00, 0.00, -0.00, -1.00, 410.2, 148.9)">d</text><text xml:space="preserve" font-family="TrebuchetMS,Trebuchet MS" font-size="38.0" fill="#000000" transform="matrix(1.00, 0.00, -0.00, -1.00, 431.4, 148.9)">e</text><text xml:space="preserve" font-family="TrebuchetMS,Trebuchet MS" font-size="38.0" fill="#000000" transform="matrix(1.00, 0.00, -0.00, -1.00, 452.1, 148.9)">b</text><text xml:space="preserve" font-family="TrebuchetMS,Trebuchet MS" font-size="38.0" fill="#000000" transform="matrix(1.00, 0.00, -0.00, -1.00, 473.3, 148.9)">u</text><text xml:space="preserve" font-family="TrebuchetMS,Trebuchet MS" font-size="38.0" fill="#000000" transform="matrix(1.00, 0.00, -0.00, -1.00, 494.1, 148.9)">g</text><text xml:space="preserve" font-family="TrebuchetMS,Trebuchet MS" font-size="38.0" fill="#000000" transform="matrix(1.00, 0.00, -0.00, -1.00, 513.2, 148.9)">g</text><text xml:space="preserve" font-family="TrebuchetMS,Trebuchet MS" font-size="38.0" fill="#000000" transform="matrix(1.00, 0.00, -0.00, -1.00, 532.2, 148.9)">e</text><text xml:space="preserve" font-family="TrebuchetMS,Trebuchet MS" font-size="38.0" fill="#000000" transform="matrix(1.00, 0.00, -0.00, -1.00, 553.0, 148.9)">r</text><text xml:space="preserve" font-family="TrebuchetMS,Trebuchet MS" font-size="38.0" fill="#000000" transform="matrix(1.00, 0.00, -0.00, -1.00, 567.7, 148.9)"> </text><text xml:space="preserve" font-family="TrebuchetMS,Trebuchet MS" font-size="38.0" fill="#000000" transform="matrix(1.00, 0.00, -0.00, -1.00, 579.2, 148.9)">f</text><text xml:space="preserve" font-family="TrebuchetMS,Trebuchet MS" font-size="38.0" fill="#000000" transform="matrix(1.00, 0.00, -0.00, -1.00, 593.2, 148.9)">o</text><text xml:space="preserve" font-family="TrebuchetMS,Trebuchet MS" font-size="38.0" fill="#000000" transform="matrix(1.00, 0.00, -0.00, -1.00, 613.6, 148.9)">r</text><text xml:space="preserve" font-family="TrebuchetMS,Trebuchet MS" font-size="38.0" fill="#000000" transform="matrix(1.00, 0.00, -0.00, -1.00, 628.4, 148.9)"> </text><text xml:space="preserve" font-family="TrebuchetMS,Trebuchet MS" font-size="38.0" fill="#000000" transform="matrix(1.00, 0.00, -0.00, -1.00, 639.8, 148.9)">d</text><text xml:space="preserve" font-family="TrebuchetMS,Trebuchet MS" font-size="38.0" fill="#000000" transform="matrix(1.00, 0.00, -0.00, -1.00, 661.0, 148.9)">e</text><text xml:space="preserve" font-family="TrebuchetMS,Trebuchet MS" font-size="38.0" fill="#000000" transform="matrix(1.00, 0.00, -0.00, -1.00, 681.7, 148.9)">s</text><text xml:space="preserve" font-family="TrebuchetMS,Trebuchet MS" font-size="38.0" fill="#000000" transform="matrix(1.00, 0.00, -0.00, -1.00, 697.1, 148.9)">k</text><text xml:space="preserve" font-family="TrebuchetMS,Trebuchet MS" font-size="38.0" fill="#000000" transform="matrix(1.00, 0.00, -0.00, -1.00, 716.3, 148.9)">t</text><text xml:space="preserve" font-family="TrebuchetMS,Trebuchet MS" font-size="38.0" fill="#000000" transform="matrix(1.00, 0.00, -0.00, -1.00, 731.4, 148.9)">o</text><text xml:space="preserve" font-family="TrebuchetMS,Trebuchet MS" font-size="38.0" fill="#000000" transform="matrix(1.00, 0.00, -0.00, -1.00, 751.7, 148.9)">p</text><text xml:space="preserve" font-family="TrebuchetMS,Trebuchet MS" font-size="38.0" fill="#000000" transform="matrix(1.00, 0.00, -0.00, -1.00, 772.9, 148.9)"> </text><text xml:space="preserve" font-family="TrebuchetMS,Trebuchet MS" font-size="38.0" fill="#000000" transform="matrix(1.00, 0.00, -0.00, -1.00, 784.4, 148.9)">a</text><text xml:space="preserve" font-family="TrebuchetMS,Trebuchet MS" font-size="38.0" fill="#000000" transform="matrix(1.00, 0.00, -0.00, -1.00, 804.4, 148.9)">n</text><text xml:space="preserve" font-family="TrebuchetMS,Trebuchet MS" font-size="38.0" fill="#000000" transform="matrix(1.00, 0.00, -0.00, -1.00, 825.1, 148.9)">d</text><text xml:space="preserve" font-family="TrebuchetMS,Trebuchet MS" font-size="38.0" fill="#000000" transform="matrix(1.00, 0.00, -0.00, -1.00, 846.3, 148.9)"> </text><text xml:space="preserve" font-family="TrebuchetMS,Trebuchet MS" font-size="38.0" fill="#000000" transform="matrix(1.00, 0.00, -0.00, -1.00, 857.8, 148.9)">m</text><text xml:space="preserve" font-family="TrebuchetMS,Trebuchet MS" font-size="38.0" fill="#000000" transform="matrix(1.00, 0.00, -0.00, -1.00, 889.3, 148.9)">o</text><text xml:space="preserve" font-family="TrebuchetMS,Trebuchet MS" font-size="38.0" fill="#000000" transform="matrix(1.00, 0.00, -0.00, -1.00, 909.7, 148.9)">b</text><text xml:space="preserve" font-family="TrebuchetMS,Trebuchet MS" font-size="38.0" fill="#000000" transform="matrix(1.00, 0.00, -0.00, -1.00, 930.9, 148.9)">i</text><text xml:space="preserve" font-family="TrebuchetMS,Trebuchet MS" font-size="38.0" fill="#000000" transform="matrix(1.00, 0.00, -0.00, -1.00, 941.7, 148.9)">l</text><text xml:space="preserve" font-family="TrebuchetMS,Trebuchet MS" font-size="38.0" fill="#000000" transform="matrix(1.00, 0.00, -0.00, -1.00, 952.9, 148.9)">e</text><text xml:space="preserve" font-family="TrebuchetMS,Trebuchet MS" font-size="38.0" fill="#000000" transform="matrix(1.00, 0.00, -0.00, -1.00, 973.7, 148.9)">.</text></g></svg>